<?xml version="1.0" encoding="UTF-8" standalone="no"?>
<!DOCTYPE svg PUBLIC "-//W3C//DTD SVG 1.1//EN" "http://www.w3.org/Graphics/SVG/1.1/DTD/svg11.dtd">
<svg version="1.1" xmlns="http://www.w3.org/2000/svg" xmlns:xlink="http://www.w3.org/1999/xlink" preserveAspectRatio="xMidYMid meet" viewBox="0 0 490 140" width="490" height="140"><defs><path d="M229.87 2.1C243.15 38.48 250.52 58.7 252 62.74C256.57 75.14 261.15 87.92 265.35 100.31C265.38 100.31 265.69 100.31 265.73 100.31C270.11 87.73 274.7 75.33 279.47 62.56C280.98 58.53 288.54 38.38 302.16 2.11L333.24 2.11L280.6 140.18L250.09 140.18L197.26 2.1L229.87 2.1Z" id="a3Lh4TsoZ"></path><path d="M439.62 44.27L440.55 44.3L441.48 44.33L442.4 44.38L443.31 44.44L444.22 44.51L445.12 44.59L446.01 44.68L446.9 44.78L447.78 44.89L448.65 45.01L449.51 45.15L450.37 45.29L451.21 45.45L452.05 45.62L452.88 45.79L453.7 45.98L454.51 46.18L455.32 46.39L456.11 46.62L456.89 46.85L457.66 47.1L458.42 47.35L459.18 47.62L459.92 47.9L460.65 48.19L461.37 48.49L462.07 48.81L462.77 49.13L463.45 49.47L464.12 49.82L464.78 50.18L465.43 50.55L466.06 50.93L466.68 51.33L467.28 51.73L467.88 52.15L468.46 52.58L469.02 53.02L469.54 53.45L470.05 53.88L470.55 54.33L471.03 54.78L471.5 55.25L471.95 55.72L472.39 56.21L472.82 56.7L473.24 57.21L473.64 57.72L474.03 58.25L474.4 58.79L474.76 59.34L475.11 59.89L475.44 60.46L475.76 61.04L476.07 61.64L476.36 62.24L476.65 62.85L476.91 63.47L477.17 64.11L477.41 64.76L477.64 65.42L477.85 66.08L478.05 66.77L478.24 67.46L478.42 68.16L478.58 68.88L478.73 69.61L478.86 70.35L478.99 71.1L479.1 71.86L479.19 72.64L479.28 73.42L479.35 74.22L479.41 75.04L479.45 75.86L479.48 76.7L479.5 77.55L479.51 78.41L479.51 109.58L479.51 109.9L479.52 110.21L479.54 110.52L479.56 110.83L479.59 111.12L479.63 111.42L479.67 111.7L479.72 111.98L479.78 112.26L479.84 112.53L479.91 112.79L479.99 113.04L480.07 113.29L480.17 113.53L480.26 113.77L480.37 114L480.48 114.21L480.6 114.43L480.73 114.63L480.87 114.83L481.01 115.02L481.16 115.2L481.32 115.37L481.49 115.53L481.66 115.69L481.84 115.83L482.03 115.97L482.23 116.1L482.43 116.22L482.65 116.32L482.87 116.42L483.1 116.51L483.34 116.59L483.58 116.66L483.84 116.72L484.1 116.77L484.37 116.81L484.65 116.84L484.94 116.85L485.23 116.86L485.35 116.86L485.46 116.86L485.58 116.85L485.69 116.85L485.81 116.84L485.93 116.83L486.05 116.82L486.17 116.81L486.29 116.8L486.41 116.79L486.53 116.77L486.65 116.76L486.77 116.74L486.89 116.72L487.01 116.7L487.13 116.68L487.25 116.65L487.37 116.63L487.49 116.6L487.62 116.58L487.74 116.55L487.86 116.52L487.98 116.49L488.1 116.45L488.22 116.42L488.34 116.38L488.47 116.35L488.59 116.31L488.71 116.27L488.83 116.23L488.95 116.18L489.07 116.14L489.18 116.09L489.3 116.05L489.42 116L489.54 115.95L489.65 115.9L489.77 115.85L489.89 115.79L490 115.74L490 137.01L489.75 137.14L489.5 137.26L489.24 137.38L488.97 137.5L488.7 137.61L488.42 137.73L488.13 137.84L487.84 137.95L487.54 138.05L487.23 138.16L486.92 138.26L486.61 138.36L486.29 138.45L485.96 138.55L485.63 138.64L485.29 138.72L484.95 138.81L484.6 138.89L484.25 138.97L483.9 139.04L483.54 139.11L483.17 139.18L482.81 139.25L482.43 139.31L482.06 139.37L481.68 139.42L481.3 139.48L480.91 139.52L480.52 139.57L480.13 139.61L479.74 139.65L479.34 139.68L478.94 139.71L478.54 139.74L478.13 139.76L477.73 139.78L477.32 139.79L476.91 139.8L476.49 139.81L476.08 139.81L475.51 139.81L474.94 139.8L474.37 139.78L473.8 139.75L473.23 139.71L472.67 139.67L472.1 139.62L471.54 139.56L470.98 139.49L470.43 139.41L469.87 139.32L469.32 139.23L468.78 139.12L468.23 139.01L467.69 138.89L467.15 138.75L466.62 138.61L466.09 138.46L465.56 138.3L465.04 138.13L464.53 137.95L464.02 137.76L463.51 137.56L463.01 137.35L462.51 137.13L462.02 136.9L461.54 136.66L461.06 136.41L460.59 136.15L460.12 135.87L459.66 135.59L459.21 135.3L458.77 134.99L458.33 134.67L457.9 134.35L457.48 134.01L457.06 133.66L456.65 133.29L456.25 132.92L455.86 132.53L455.48 132.53L454.71 132.91L453.95 133.28L453.19 133.64L452.44 133.99L451.69 134.33L450.95 134.66L450.22 134.98L449.49 135.29L448.77 135.59L448.05 135.88L447.34 136.16L446.64 136.43L445.94 136.7L445.25 136.95L444.56 137.19L443.88 137.43L443.21 137.65L442.54 137.87L441.88 138.07L441.22 138.27L440.57 138.45L439.93 138.63L439.29 138.8L438.65 138.96L438.03 139.1L437.41 139.24L436.79 139.37L436.18 139.49L435.58 139.6L434.99 139.7L434.39 139.79L433.81 139.87L433.23 139.95L432.66 140.01L432.09 140.06L431.53 140.1L430.98 140.14L430.43 140.16L429.88 140.18L429.35 140.18L428.75 140.18L428.15 140.17L427.55 140.15L426.96 140.12L426.36 140.09L425.77 140.05L425.18 140.01L424.59 139.95L424.01 139.89L423.43 139.82L422.85 139.75L422.27 139.67L421.69 139.58L421.12 139.48L420.55 139.37L419.99 139.26L419.43 139.14L418.87 139.01L418.31 138.88L417.76 138.73L417.21 138.58L416.66 138.42L416.12 138.26L415.59 138.08L415.05 137.9L414.52 137.71L414 137.51L413.48 137.31L412.96 137.09L412.45 136.87L411.94 136.64L411.44 136.4L410.94 136.16L410.45 135.9L409.96 135.64L409.48 135.37L409 135.09L408.53 134.8L408.07 134.51L407.61 134.2L407.1 133.85L406.6 133.48L406.11 133.11L405.63 132.73L405.16 132.33L404.7 131.93L404.25 131.52L403.82 131.09L403.39 130.66L402.98 130.22L402.58 129.77L402.19 129.31L401.81 128.84L401.44 128.36L401.09 127.87L400.75 127.38L400.42 126.87L400.1 126.35L399.79 125.83L399.5 125.29L399.22 124.75L398.96 124.2L398.7 123.64L398.46 123.06L398.24 122.49L398.02 121.9L397.82 121.3L397.64 120.69L397.47 120.08L397.31 119.45L397.17 118.82L397.04 118.18L396.92 117.53L396.83 116.87L396.74 116.2L396.67 115.53L396.62 114.84L396.58 114.15L396.56 113.45L396.55 112.74L396.56 111.99L396.58 111.25L396.63 110.51L396.69 109.79L396.77 109.08L396.86 108.37L396.97 107.68L397.1 106.99L397.24 106.32L397.4 105.65L397.57 104.99L397.76 104.35L397.96 103.71L398.18 103.08L398.41 102.47L398.65 101.86L398.91 101.26L399.18 100.68L399.47 100.1L399.77 99.54L400.08 98.98L400.4 98.44L400.73 97.9L401.08 97.38L401.44 96.87L401.81 96.37L402.19 95.88L402.58 95.4L402.98 94.93L403.39 94.47L403.81 94.03L404.24 93.59L404.68 93.17L405.13 92.76L405.58 92.36L406.05 91.97L406.52 91.59L407 91.23L407.49 90.87L407.99 90.53L408.54 90.17L409.09 89.83L409.66 89.49L410.23 89.17L410.8 88.86L411.39 88.56L411.98 88.27L412.58 87.99L413.18 87.72L413.79 87.46L414.41 87.22L415.03 86.98L415.66 86.75L416.3 86.54L416.94 86.33L417.58 86.14L418.23 85.95L418.89 85.77L419.55 85.6L420.22 85.45L420.89 85.3L421.56 85.16L422.24 85.02L422.93 84.9L423.62 84.79L424.31 84.68L425 84.58L425.7 84.49L426.4 84.41L427.11 84.34L427.82 84.27L428.53 84.21L429.24 84.16L429.96 84.12L430.68 84.08L431.4 84.05L432.13 84.03L432.85 84.01L433.58 84L434.31 84L434.72 84L435.14 84L435.55 84.01L435.97 84.02L436.38 84.03L436.79 84.04L437.21 84.05L437.62 84.07L438.03 84.08L438.45 84.1L438.86 84.13L439.27 84.15L439.68 84.18L440.1 84.2L440.51 84.23L440.92 84.27L441.33 84.3L441.74 84.34L442.15 84.38L442.55 84.42L442.96 84.46L443.37 84.51L443.77 84.55L444.18 84.6L444.58 84.65L444.99 84.71L445.39 84.76L445.79 84.82L446.19 84.88L446.59 84.94L446.99 85.01L447.38 85.07L447.78 85.14L448.18 85.21L448.57 85.28L448.96 85.36L449.35 85.43L449.74 85.51L450.13 85.59L450.52 85.68L450.52 82.13L450.52 81.8L450.51 81.47L450.49 81.14L450.47 80.82L450.45 80.51L450.42 80.19L450.38 79.89L450.34 79.58L450.3 79.28L450.25 78.99L450.19 78.7L450.13 78.41L450.07 78.13L450 77.86L449.93 77.59L449.85 77.32L449.77 77.06L449.68 76.8L449.59 76.55L449.49 76.3L449.4 76.06L449.29 75.82L449.19 75.59L449.08 75.36L448.96 75.14L448.85 74.92L448.73 74.71L448.6 74.5L448.48 74.3L448.35 74.1L448.21 73.91L448.08 73.72L447.94 73.54L447.8 73.36L447.65 73.19L447.51 73.03L447.36 72.87L447.21 72.72L447.05 72.57L446.9 72.42L446.69 72.24L446.48 72.07L446.26 71.89L446.03 71.73L445.79 71.56L445.54 71.4L445.29 71.24L445.02 71.09L444.75 70.94L444.47 70.79L444.18 70.65L443.89 70.51L443.58 70.37L443.27 70.24L442.95 70.12L442.62 70L442.28 69.88L441.94 69.77L441.58 69.66L441.22 69.56L440.85 69.46L440.48 69.36L440.09 69.27L439.7 69.19L439.3 69.1L438.89 69.03L438.48 68.96L438.06 68.89L437.62 68.83L437.19 68.78L436.74 68.72L436.29 68.68L435.83 68.64L435.36 68.6L434.88 68.57L434.4 68.55L433.91 68.53L433.42 68.51L432.91 68.51L432.4 68.5L431.61 68.51L430.83 68.53L430.06 68.56L429.28 68.6L428.51 68.66L427.75 68.72L426.99 68.8L426.23 68.88L425.48 68.98L424.73 69.09L423.99 69.21L423.25 69.33L422.51 69.47L421.79 69.62L421.06 69.77L420.34 69.94L419.63 70.11L418.92 70.29L418.22 70.48L417.52 70.67L416.83 70.87L416.15 71.08L415.47 71.3L414.8 71.53L414.13 71.75L413.47 71.99L412.81 72.23L412.17 72.48L411.53 72.73L410.89 72.99L410.26 73.25L409.64 73.52L409.03 73.79L408.42 74.06L407.82 74.34L407.23 74.62L406.65 74.91L406.07 75.2L405.5 75.49L404.94 75.78L404.94 51.34L405.52 51.06L406.11 50.78L406.72 50.5L407.34 50.23L407.97 49.96L408.62 49.69L409.29 49.43L409.96 49.17L410.65 48.91L411.35 48.65L412.07 48.4L412.79 48.16L413.53 47.92L414.28 47.68L415.05 47.45L415.83 47.23L416.61 47.01L417.42 46.8L418.23 46.59L419.05 46.39L419.89 46.2L420.73 46.02L421.59 45.84L422.46 45.67L423.34 45.51L424.23 45.35L425.13 45.21L426.04 45.07L426.97 44.95L427.9 44.83L428.84 44.72L429.79 44.63L430.75 44.54L431.72 44.46L432.7 44.4L433.69 44.35L434.69 44.3L435.7 44.27L436.72 44.25L437.74 44.25L438.69 44.25L439.62 44.27ZM437.06 100.94L435.52 101.13L434.03 101.41L432.6 101.77L431.25 102.24L430 102.8L428.87 103.48L427.86 104.27L427 105.18L426.31 106.21L425.79 107.38L425.47 108.68L425.36 110.13L425.44 111.37L425.67 112.52L426.05 113.58L426.57 114.56L427.22 115.44L427.98 116.24L428.86 116.94L429.84 117.56L430.91 118.08L432.07 118.51L433.3 118.84L434.6 119.08L435.96 119.22L437.37 119.27L438.43 119.25L439.48 119.17L440.52 119.05L441.55 118.89L442.56 118.69L443.55 118.45L444.52 118.18L445.47 117.87L446.39 117.54L447.29 117.18L448.15 116.8L448.98 116.39L449.77 115.97L450.53 115.54L450.53 102.11L449.51 101.93L448.54 101.76L447.61 101.61L446.73 101.47L445.89 101.34L445.09 101.22L444.33 101.12L443.62 101.04L442.94 100.96L442.32 100.9L441.73 100.86L441.19 100.82L440.69 100.8L440.23 100.8L438.64 100.83L437.06 100.94Z" id="a1y2bTQHKN"></path><path d="M378.43 16.6C378.43 25.75 370.8 33.19 361.65 33.19C352.5 33.19 344.87 25.75 344.87 16.6C344.86 7.44 352.5 0 361.65 0C370.8 0 378.43 7.44 378.43 16.6Z" id="a1XasyCcoH"></path><path d="M155.14 26.46C154.79 28.45 154.03 30.21 153 32.04C152.77 32.41 151.63 34.27 149.58 37.62C115.8 93.22 97.04 124.12 93.29 130.29C86.27 141.86 68.65 141.86 61.64 130.29C59.95 127.49 51.51 113.48 36.31 88.26L77.64 107.4C124.14 58.84 149.97 31.85 155.14 26.46Z" id="fYiAsBRHi"></path><path d="M75.67 97.88L33.76 78.58C14.98 47.55 4.55 30.31 2.46 26.86C-4.55 15.3 4.26 0.89 18.29 0.89C30.16 0.89 125.09 0.89 136.95 0.89C142.34 0.89 146.87 2.88 150.05 6.13C152.6 8.8 154.22 11.88 154.97 15.3C144.4 26.31 117.97 53.84 75.67 97.88Z" id="ajh6WVERi"></path><path d="M344.87 44.25L378.43 44.25L378.43 140.18L344.87 140.18L344.87 44.25Z" id="c1XBMYNG6g"></path></defs><g><g><g><use xlink:href="#a3Lh4TsoZ" opacity="1" fill="#778bfc" fill-opacity="1"></use><g><use xlink:href="#a3Lh4TsoZ" opacity="1" fill-opacity="0" stroke="#000000" stroke-width="1" stroke-opacity="0"></use></g></g><g><use xlink:href="#a1y2bTQHKN" opacity="1" fill="#778bfc" fill-opacity="1"></use><g><use xlink:href="#a1y2bTQHKN" opacity="1" fill-opacity="0" stroke="#000000" stroke-width="1" stroke-opacity="0"></use></g></g><g><use xlink:href="#a1XasyCcoH" opacity="1" fill="#52a3ff" fill-opacity="1"></use><g><use xlink:href="#a1XasyCcoH" opacity="1" fill-opacity="0" stroke="#000000" stroke-width="1" stroke-opacity="0"></use></g></g><g><use xlink:href="#fYiAsBRHi" opacity="1" fill="#52a4ff" fill-opacity="1"></use><g><use xlink:href="#fYiAsBRHi" opacity="1" fill-opacity="0" stroke="#000000" stroke-width="1" stroke-opacity="0"></use></g></g><g><use xlink:href="#ajh6WVERi" opacity="1" fill="#778cfd" fill-opacity="1"></use><g><use xlink:href="#ajh6WVERi" opacity="1" fill-opacity="0" stroke="#000000" stroke-width="1" stroke-opacity="0"></use></g></g><g><use xlink:href="#c1XBMYNG6g" opacity="1" fill="#778bfc" fill-opacity="1"></use></g></g></g></svg>